<svg width="870" height="640" viewBox="0 0 870 640" fill="none" xmlns="http://www.w3.org/2000/svg">
<path d="M57 625.5L806 625.5" stroke="black" stroke-width="12"/>
<path d="M345 102.748C341.273 102.748 338.25 105.625 338.25 109.17C338.25 113.248 342.75 119.71 344.402 121.943C344.471 122.037 344.561 122.113 344.665 122.166C344.768 122.219 344.883 122.247 345 122.247C345.116 122.247 345.231 122.219 345.335 122.166C345.439 122.113 345.529 122.037 345.598 121.943C347.25 119.711 351.75 113.251 351.75 109.17C351.75 105.625 348.726 102.748 345 102.748Z" stroke="#666666" stroke-width="1.5" stroke-linecap="round" stroke-linejoin="round"/>
<path d="M345 111.75C346.243 111.75 347.25 110.743 347.25 109.5C347.25 108.258 346.243 107.25 345 107.25C343.757 107.25 342.75 108.258 342.75 109.5C342.75 110.743 343.757 111.75 345 111.75Z" stroke="#666666" stroke-width="1.5" stroke-linecap="round" stroke-linejoin="round"/>
<path d="M491 86.7477C487.273 86.7477 484.25 89.6253 484.25 93.1696C484.25 97.2477 488.75 103.71 490.402 105.943C490.471 106.037 490.561 106.113 490.665 106.166C490.768 106.219 490.883 106.247 491 106.247C491.116 106.247 491.231 106.219 491.335 106.166C491.439 106.113 491.529 106.037 491.598 105.943C493.25 103.711 497.75 97.251 497.75 93.1696C497.75 89.6253 494.726 86.7477 491 86.7477Z" stroke="#666666" stroke-width="1.5" stroke-linecap="round" stroke-linejoin="round"/>
<path d="M491 95.7504C492.243 95.7504 493.25 94.743 493.25 93.5004C493.25 92.2577 492.243 91.2504 491 91.2504C489.757 91.2504 488.75 92.2577 488.75 93.5004C488.75 94.743 489.757 95.7504 491 95.7504Z" stroke="#666666" stroke-width="1.5" stroke-linecap="round" stroke-linejoin="round"/>
<path d="M462 133.748C458.273 133.748 455.25 136.625 455.25 140.17C455.25 144.248 459.75 150.71 461.402 152.943C461.471 153.037 461.561 153.113 461.665 153.166C461.768 153.219 461.883 153.247 462 153.247C462.116 153.247 462.231 153.219 462.335 153.166C462.439 153.113 462.529 153.037 462.598 152.943C464.25 150.711 468.75 144.251 468.75 140.17C468.75 136.625 465.726 133.748 462 133.748Z" stroke="#666666" stroke-width="1.5" stroke-linecap="round" stroke-linejoin="round"/>
<path d="M462 142.75C463.243 142.75 464.25 141.743 464.25 140.5C464.25 139.258 463.243 138.25 462 138.25C460.757 138.25 459.75 139.258 459.75 140.5C459.75 141.743 460.757 142.75 462 142.75Z" stroke="#666666" stroke-width="1.5" stroke-linecap="round" stroke-linejoin="round"/>
<path d="M516 191.372C510.41 191.372 505.875 195.688 505.875 201.004C505.875 207.122 512.625 216.816 515.103 220.164C515.206 220.305 515.341 220.42 515.497 220.499C515.653 220.579 515.825 220.62 516 220.62C516.175 220.62 516.347 220.579 516.503 220.499C516.659 220.42 516.793 220.305 516.896 220.164C519.375 216.817 526.125 207.126 526.125 201.004C526.125 195.688 521.59 191.372 516 191.372Z" stroke="#EB445A" stroke-width="2.25" stroke-linecap="round" stroke-linejoin="round"/>
<path d="M516 204.876C517.864 204.876 519.375 203.365 519.375 201.501C519.375 199.637 517.864 198.126 516 198.126C514.136 198.126 512.625 199.637 512.625 201.501C512.625 203.365 514.136 204.876 516 204.876Z" stroke="#EB445A" stroke-width="2.25" stroke-linecap="round" stroke-linejoin="round"/>
<path d="M427 172.748C423.273 172.748 420.25 175.625 420.25 179.17C420.25 183.248 424.75 189.71 426.402 191.943C426.471 192.037 426.561 192.113 426.665 192.166C426.768 192.219 426.883 192.247 427 192.247C427.116 192.247 427.231 192.219 427.335 192.166C427.439 192.113 427.529 192.037 427.598 191.943C429.25 189.711 433.75 183.251 433.75 179.17C433.75 175.625 430.726 172.748 427 172.748Z" stroke="#666666" stroke-width="1.5" stroke-linecap="round" stroke-linejoin="round"/>
<path d="M427 181.75C428.243 181.75 429.25 180.743 429.25 179.5C429.25 178.258 428.243 177.25 427 177.25C425.757 177.25 424.75 178.258 424.75 179.5C424.75 180.743 425.757 181.75 427 181.75Z" stroke="#666666" stroke-width="1.5" stroke-linecap="round" stroke-linejoin="round"/>
<path d="M379 242.748C375.273 242.748 372.25 245.625 372.25 249.17C372.25 253.248 376.75 259.71 378.402 261.943C378.471 262.037 378.561 262.113 378.665 262.166C378.768 262.219 378.883 262.247 379 262.247C379.116 262.247 379.231 262.219 379.335 262.166C379.439 262.113 379.529 262.037 379.598 261.943C381.25 259.711 385.75 253.251 385.75 249.17C385.75 245.625 382.726 242.748 379 242.748Z" stroke="#666666" stroke-width="1.5" stroke-linecap="round" stroke-linejoin="round"/>
<path d="M379 251.75C380.243 251.75 381.25 250.743 381.25 249.5C381.25 248.258 380.243 247.25 379 247.25C377.757 247.25 376.75 248.258 376.75 249.5C376.75 250.743 377.757 251.75 379 251.75Z" stroke="#666666" stroke-width="1.5" stroke-linecap="round" stroke-linejoin="round"/>
<path d="M515 252.248C511.273 252.248 508.25 255.125 508.25 258.67C508.25 262.748 512.75 269.21 514.402 271.443C514.471 271.537 514.561 271.613 514.665 271.666C514.768 271.719 514.883 271.747 515 271.747C515.116 271.747 515.231 271.719 515.335 271.666C515.439 271.613 515.529 271.537 515.598 271.443C517.25 269.211 521.75 262.751 521.75 258.67C521.75 255.125 518.726 252.248 515 252.248Z" stroke="#666666" stroke-width="1.5" stroke-linecap="round" stroke-linejoin="round"/>
<path d="M515 261.25C516.243 261.25 517.25 260.243 517.25 259C517.25 257.758 516.243 256.75 515 256.75C513.757 256.75 512.75 257.758 512.75 259C512.75 260.243 513.757 261.25 515 261.25Z" stroke="#666666" stroke-width="1.5" stroke-linecap="round" stroke-linejoin="round"/>
<path d="M44.9999 617.748C41.2733 617.748 38.2499 620.625 38.2499 624.17C38.2499 628.248 42.7499 634.71 44.4022 636.943C44.4708 637.037 44.5607 637.113 44.6646 637.166C44.7684 637.219 44.8833 637.247 44.9999 637.247C45.1164 637.247 45.2313 637.219 45.3352 637.166C45.4391 637.113 45.5289 637.037 45.5975 636.943C47.2499 634.711 51.7499 628.251 51.7499 624.17C51.7499 620.625 48.7264 617.748 44.9999 617.748Z" stroke="#666666" stroke-width="1.5" stroke-linecap="round" stroke-linejoin="round"/>
<path d="M45 626.75C46.2426 626.75 47.25 625.743 47.25 624.5C47.25 623.258 46.2426 622.25 45 622.25C43.7574 622.25 42.75 623.258 42.75 624.5C42.75 625.743 43.7574 626.75 45 626.75Z" stroke="#666666" stroke-width="1.5" stroke-linecap="round" stroke-linejoin="round"/>
<path d="M63 91L139.655 124.328C142.145 125.411 144.927 125.617 147.549 124.914L324.729 77.3776C326.868 76.8038 329.124 76.833 331.247 77.4622L579.778 151.101C582.804 151.997 585.354 154.049 586.878 156.812L611.181 200.888C612.961 204.115 616.124 206.346 619.762 206.938L697.64 219.616C699.198 219.869 700.691 220.428 702.033 221.26L733.375 240.683C734.777 241.552 736.342 242.122 737.974 242.359L854.909 259.312C862.598 260.427 867.217 268.442 864.326 275.653L826.187 370.787C825.732 371.922 825.453 373.121 825.36 374.341L806.5 622" stroke="#4F4F4F" stroke-width="7"/>
<path d="M818 615.748C814.273 615.748 811.25 618.625 811.25 622.17C811.25 626.248 815.75 632.71 817.402 634.943C817.471 635.037 817.561 635.113 817.665 635.166C817.768 635.219 817.883 635.247 818 635.247C818.116 635.247 818.231 635.219 818.335 635.166C818.439 635.113 818.529 635.037 818.598 634.943C820.25 632.711 824.75 626.251 824.75 622.17C824.75 618.625 821.726 615.748 818 615.748Z" stroke="#666666" stroke-width="1.5" stroke-linecap="round" stroke-linejoin="round"/>
<path d="M818 624.75C819.243 624.75 820.25 623.743 820.25 622.5C820.25 621.258 819.243 620.25 818 620.25C816.757 620.25 815.75 621.258 815.75 622.5C815.75 623.743 816.757 624.75 818 624.75Z" stroke="#666666" stroke-width="1.5" stroke-linecap="round" stroke-linejoin="round"/>
<path d="M283.5 -183L226.825 -89.5754C221.992 -81.6077 215.595 -74.7017 208.019 -69.274L131.806 -14.6677C125.644 -10.2528 120.252 -4.85258 115.846 1.31578L77.6021 54.857C74.2144 59.5999 71.4177 64.749 69.3064 70.1817C61.2364 90.9472 56.5 107.319 56.5 197.5C62.5 295.5 62.5 353 62.5 353C62.5 353 62.5 353 62.5 353V631" stroke="#828282" stroke-width="7"/>
<path d="M30.9999 242.248C27.2733 242.248 24.2499 245.125 24.2499 248.67C24.2499 252.748 28.7499 259.21 30.4022 261.443C30.4708 261.537 30.5607 261.613 30.6646 261.666C30.7684 261.719 30.8833 261.747 30.9999 261.747C31.1164 261.747 31.2313 261.719 31.3352 261.666C31.4391 261.613 31.5289 261.537 31.5975 261.443C33.2499 259.211 37.7499 252.751 37.7499 248.67C37.7499 245.125 34.7264 242.248 30.9999 242.248Z" stroke="#666666" stroke-width="1.5" stroke-linecap="round" stroke-linejoin="round"/>
<path d="M31 251.25C32.2426 251.25 33.25 250.243 33.25 249C33.25 247.758 32.2426 246.75 31 246.75C29.7574 246.75 28.75 247.758 28.75 249C28.75 250.243 29.7574 251.25 31 251.25Z" stroke="#666666" stroke-width="1.5" stroke-linecap="round" stroke-linejoin="round"/>
<path d="M318.248 136V128.08H321.044C321.916 128.08 322.564 128.264 322.988 128.632C323.412 128.992 323.624 129.508 323.624 130.18C323.624 130.636 323.5 131.028 323.252 131.356C323.004 131.676 322.644 131.884 322.172 131.98V131.992C322.684 132.072 323.088 132.284 323.384 132.628C323.688 132.964 323.84 133.38 323.84 133.876C323.84 134.54 323.6 135.06 323.12 135.436C322.64 135.812 321.948 136 321.044 136H318.248ZM318.848 135.448H321.164C321.844 135.448 322.352 135.312 322.688 135.04C323.032 134.768 323.204 134.376 323.204 133.864C323.204 133.344 323.032 132.952 322.688 132.688C322.352 132.416 321.844 132.28 321.164 132.28H318.848V135.448ZM318.848 131.728H321.056C322.344 131.728 322.988 131.212 322.988 130.18C322.988 129.148 322.344 128.632 321.056 128.632H318.848V131.728ZM325.65 136V130H326.154L326.226 131.26C326.378 130.836 326.622 130.5 326.958 130.252C327.294 130.004 327.698 129.88 328.17 129.88C328.33 129.88 328.474 129.896 328.602 129.928C328.73 129.96 328.834 130.012 328.914 130.084L328.782 130.612C328.694 130.556 328.598 130.512 328.494 130.48C328.39 130.448 328.234 130.432 328.026 130.432C327.722 130.432 327.434 130.528 327.162 130.72C326.89 130.904 326.67 131.164 326.502 131.5C326.334 131.828 326.25 132.208 326.25 132.64V136H325.65ZM330.485 128.836C330.333 128.836 330.209 128.792 330.113 128.704C330.025 128.608 329.981 128.484 329.981 128.332C329.981 128.18 330.025 128.06 330.113 127.972C330.209 127.876 330.333 127.828 330.485 127.828C330.637 127.828 330.757 127.876 330.845 127.972C330.941 128.06 330.989 128.18 330.989 128.332C330.989 128.484 330.941 128.608 330.845 128.704C330.757 128.792 330.637 128.836 330.485 128.836ZM330.785 130V136H330.185V130H330.785ZM333.468 127.24V134.584C333.468 134.952 333.532 135.212 333.66 135.364C333.788 135.516 333.988 135.592 334.26 135.592C334.428 135.592 334.56 135.58 334.656 135.556C334.76 135.532 334.88 135.492 335.016 135.436L334.932 135.964C334.828 136.012 334.708 136.048 334.572 136.072C334.444 136.104 334.3 136.12 334.14 136.12C333.716 136.12 333.396 136 333.18 135.76C332.972 135.512 332.868 135.128 332.868 134.608V127.24H333.468ZM336.761 127.24V134.584C336.761 134.952 336.825 135.212 336.953 135.364C337.081 135.516 337.281 135.592 337.553 135.592C337.721 135.592 337.853 135.58 337.949 135.556C338.053 135.532 338.173 135.492 338.309 135.436L338.225 135.964C338.121 136.012 338.001 136.048 337.865 136.072C337.737 136.104 337.593 136.12 337.433 136.12C337.009 136.12 336.689 136 336.473 135.76C336.265 135.512 336.161 135.128 336.161 134.608V127.24H336.761ZM339.802 128.836C339.65 128.836 339.526 128.792 339.43 128.704C339.342 128.608 339.298 128.484 339.298 128.332C339.298 128.18 339.342 128.06 339.43 127.972C339.526 127.876 339.65 127.828 339.802 127.828C339.954 127.828 340.074 127.876 340.162 127.972C340.258 128.06 340.306 128.18 340.306 128.332C340.306 128.484 340.258 128.608 340.162 128.704C340.074 128.792 339.954 128.836 339.802 128.836ZM340.102 130V136H339.502V130H340.102ZM345.904 132.052C345.904 131.532 345.764 131.128 345.484 130.84C345.204 130.552 344.804 130.408 344.284 130.408C343.828 130.408 343.436 130.508 343.108 130.708C342.78 130.9 342.536 131.224 342.376 131.68L341.884 131.368C342.06 130.896 342.352 130.532 342.76 130.276C343.176 130.012 343.688 129.88 344.296 129.88C344.736 129.88 345.12 129.96 345.448 130.12C345.784 130.272 346.044 130.5 346.228 130.804C346.412 131.108 346.504 131.488 346.504 131.944V134.944C346.504 135.368 346.696 135.58 347.08 135.58C347.248 135.58 347.392 135.552 347.512 135.496L347.476 135.976C347.34 136.048 347.164 136.084 346.948 136.084C346.764 136.084 346.592 136.048 346.432 135.976C346.272 135.904 346.14 135.784 346.036 135.616C345.94 135.448 345.892 135.22 345.892 134.932V134.608L346.06 134.596C345.988 134.94 345.828 135.228 345.58 135.46C345.34 135.684 345.06 135.852 344.74 135.964C344.42 136.068 344.1 136.12 343.78 136.12C343.404 136.12 343.068 136.06 342.772 135.94C342.476 135.82 342.244 135.648 342.076 135.424C341.908 135.192 341.824 134.908 341.824 134.572C341.824 134.124 341.972 133.764 342.268 133.492C342.572 133.212 342.996 133.02 343.54 132.916L346.024 132.424V132.928L343.84 133.36C343.368 133.456 343.016 133.596 342.784 133.78C342.552 133.964 342.436 134.216 342.436 134.536C342.436 134.864 342.56 135.124 342.808 135.316C343.056 135.5 343.408 135.592 343.864 135.592C344.096 135.592 344.332 135.56 344.572 135.496C344.812 135.432 345.032 135.332 345.232 135.196C345.44 135.052 345.604 134.876 345.724 134.668C345.844 134.452 345.904 134.192 345.904 133.888V132.052ZM348.748 136V130H349.288L349.336 131.5L349.24 131.416C349.352 131.088 349.52 130.812 349.744 130.588C349.968 130.356 350.236 130.18 350.548 130.06C350.86 129.94 351.196 129.88 351.556 129.88C352.004 129.88 352.4 129.964 352.744 130.132C353.088 130.3 353.356 130.548 353.548 130.876C353.748 131.204 353.848 131.616 353.848 132.112V136H353.248V132.304C353.248 131.648 353.084 131.168 352.756 130.864C352.436 130.56 352.016 130.408 351.496 130.408C351.12 130.408 350.768 130.496 350.44 130.672C350.12 130.84 349.856 131.088 349.648 131.416C349.448 131.744 349.348 132.144 349.348 132.616V136H348.748ZM356.763 128.332V134.416C356.763 134.792 356.851 135.08 357.027 135.28C357.211 135.472 357.475 135.568 357.819 135.568C358.043 135.568 358.239 135.532 358.407 135.46C358.583 135.38 358.739 135.268 358.875 135.124L359.103 135.616C358.951 135.768 358.759 135.892 358.527 135.988C358.295 136.076 358.035 136.12 357.747 136.12C357.435 136.12 357.159 136.064 356.919 135.952C356.679 135.832 356.491 135.652 356.355 135.412C356.227 135.172 356.163 134.868 356.163 134.5V128.5L356.763 128.332ZM359.007 130V130.516H354.963V130H359.007ZM324.512 147.996C324.36 148.436 324.132 148.816 323.828 149.136C323.532 149.456 323.172 149.7 322.748 149.868C322.332 150.036 321.864 150.12 321.344 150.12C320.624 150.12 319.992 149.956 319.448 149.628C318.912 149.292 318.492 148.82 318.188 148.212C317.892 147.604 317.744 146.88 317.744 146.04C317.744 145.2 317.892 144.476 318.188 143.868C318.484 143.26 318.9 142.792 319.436 142.464C319.98 142.128 320.612 141.96 321.332 141.96C321.868 141.96 322.336 142.036 322.736 142.188C323.144 142.332 323.488 142.552 323.768 142.848C324.048 143.136 324.26 143.492 324.404 143.916L323.816 144.192C323.632 143.64 323.34 143.224 322.94 142.944C322.54 142.656 322.016 142.512 321.368 142.512C320.776 142.512 320.252 142.656 319.796 142.944C319.348 143.224 318.996 143.628 318.74 144.156C318.492 144.676 318.368 145.304 318.368 146.04C318.368 146.768 318.492 147.396 318.74 147.924C318.988 148.452 319.336 148.86 319.784 149.148C320.232 149.428 320.752 149.568 321.344 149.568C321.984 149.568 322.528 149.416 322.976 149.112C323.424 148.8 323.736 148.352 323.912 147.768L324.512 147.996ZM328.485 143.88C329.045 143.88 329.537 144.004 329.961 144.252C330.393 144.5 330.729 144.86 330.969 145.332C331.217 145.796 331.341 146.352 331.341 147C331.341 147.648 331.217 148.208 330.969 148.68C330.729 149.144 330.393 149.5 329.961 149.748C329.537 149.996 329.045 150.12 328.485 150.12C327.925 150.12 327.429 149.996 326.997 149.748C326.573 149.5 326.237 149.144 325.989 148.68C325.749 148.208 325.629 147.648 325.629 147C325.629 146.352 325.749 145.796 325.989 145.332C326.237 144.86 326.573 144.5 326.997 144.252C327.429 144.004 327.925 143.88 328.485 143.88ZM328.485 144.396C328.029 144.396 327.633 144.5 327.297 144.708C326.961 144.916 326.697 145.216 326.505 145.608C326.321 145.992 326.229 146.456 326.229 147C326.229 147.536 326.321 148 326.505 148.392C326.697 148.784 326.961 149.084 327.297 149.292C327.633 149.5 328.029 149.604 328.485 149.604C328.941 149.604 329.337 149.5 329.673 149.292C330.009 149.084 330.269 148.784 330.453 148.392C330.645 148 330.741 147.536 330.741 147C330.741 146.456 330.645 145.992 330.453 145.608C330.269 145.216 330.009 144.916 329.673 144.708C329.337 144.5 328.941 144.396 328.485 144.396ZM333.056 150V144H333.596L333.644 145.5L333.548 145.416C333.66 145.088 333.828 144.812 334.052 144.588C334.276 144.356 334.544 144.18 334.856 144.06C335.168 143.94 335.504 143.88 335.864 143.88C336.312 143.88 336.708 143.964 337.052 144.132C337.396 144.3 337.664 144.548 337.856 144.876C338.056 145.204 338.156 145.616 338.156 146.112V150H337.556V146.304C337.556 145.648 337.392 145.168 337.064 144.864C336.744 144.56 336.324 144.408 335.804 144.408C335.428 144.408 335.076 144.496 334.748 144.672C334.428 144.84 334.164 145.088 333.956 145.416C333.756 145.744 333.656 146.144 333.656 146.616V150H333.056ZM344.204 144H344.84L342.332 150H341.732L339.224 144H339.896L342.044 149.376L344.204 144ZM348.477 150.12C347.925 150.12 347.433 149.996 347.001 149.748C346.569 149.5 346.229 149.144 345.981 148.68C345.741 148.208 345.621 147.648 345.621 147C345.621 146.352 345.741 145.796 345.981 145.332C346.229 144.86 346.561 144.5 346.977 144.252C347.393 144.004 347.869 143.88 348.405 143.88C348.949 143.88 349.413 144 349.797 144.24C350.181 144.48 350.477 144.816 350.685 145.248C350.893 145.672 350.997 146.164 350.997 146.724C350.997 146.796 350.993 146.868 350.985 146.94C350.985 147.004 350.981 147.064 350.973 147.12H345.993V146.58H350.709L350.409 146.664C350.401 145.976 350.217 145.428 349.857 145.02C349.505 144.612 349.017 144.408 348.393 144.408C347.961 144.408 347.581 144.512 347.253 144.72C346.925 144.92 346.669 145.216 346.485 145.608C346.301 145.992 346.209 146.456 346.209 147C346.209 147.536 346.301 148 346.485 148.392C346.677 148.784 346.941 149.084 347.277 149.292C347.621 149.492 348.017 149.592 348.465 149.592C348.929 149.592 349.325 149.492 349.653 149.292C349.989 149.092 350.249 148.816 350.433 148.464L350.913 148.74C350.769 149.028 350.577 149.276 350.337 149.484C350.097 149.684 349.821 149.84 349.509 149.952C349.197 150.064 348.853 150.12 348.477 150.12ZM352.709 150V144H353.249L353.297 145.5L353.201 145.416C353.313 145.088 353.481 144.812 353.705 144.588C353.929 144.356 354.197 144.18 354.509 144.06C354.821 143.94 355.157 143.88 355.517 143.88C355.965 143.88 356.361 143.964 356.705 144.132C357.049 144.3 357.317 144.548 357.509 144.876C357.709 145.204 357.809 145.616 357.809 146.112V150H357.209V146.304C357.209 145.648 357.045 145.168 356.717 144.864C356.397 144.56 355.977 144.408 355.457 144.408C355.081 144.408 354.729 144.496 354.401 144.672C354.081 144.84 353.817 145.088 353.609 145.416C353.409 145.744 353.309 146.144 353.309 146.616V150H352.709ZM360.724 142.332V148.416C360.724 148.792 360.812 149.08 360.988 149.28C361.172 149.472 361.436 149.568 361.78 149.568C362.004 149.568 362.2 149.532 362.368 149.46C362.544 149.38 362.7 149.268 362.836 149.124L363.064 149.616C362.912 149.768 362.72 149.892 362.488 149.988C362.256 150.076 361.996 150.12 361.708 150.12C361.396 150.12 361.12 150.064 360.88 149.952C360.64 149.832 360.452 149.652 360.316 149.412C360.188 149.172 360.124 148.868 360.124 148.5V142.5L360.724 142.332ZM362.968 144V144.516H358.924V144H362.968ZM364.552 142.836C364.4 142.836 364.276 142.792 364.18 142.704C364.092 142.608 364.048 142.484 364.048 142.332C364.048 142.18 364.092 142.06 364.18 141.972C364.276 141.876 364.4 141.828 364.552 141.828C364.704 141.828 364.824 141.876 364.912 141.972C365.008 142.06 365.056 142.18 365.056 142.332C365.056 142.484 365.008 142.608 364.912 142.704C364.824 142.792 364.704 142.836 364.552 142.836ZM364.852 144V150H364.252V144H364.852ZM369.43 143.88C369.99 143.88 370.482 144.004 370.906 144.252C371.338 144.5 371.674 144.86 371.914 145.332C372.162 145.796 372.286 146.352 372.286 147C372.286 147.648 372.162 148.208 371.914 148.68C371.674 149.144 371.338 149.5 370.906 149.748C370.482 149.996 369.99 150.12 369.43 150.12C368.87 150.12 368.374 149.996 367.942 149.748C367.518 149.5 367.182 149.144 366.934 148.68C366.694 148.208 366.574 147.648 366.574 147C366.574 146.352 366.694 145.796 366.934 145.332C367.182 144.86 367.518 144.5 367.942 144.252C368.374 144.004 368.87 143.88 369.43 143.88ZM369.43 144.396C368.974 144.396 368.578 144.5 368.242 144.708C367.906 144.916 367.642 145.216 367.45 145.608C367.266 145.992 367.174 146.456 367.174 147C367.174 147.536 367.266 148 367.45 148.392C367.642 148.784 367.906 149.084 368.242 149.292C368.578 149.5 368.974 149.604 369.43 149.604C369.886 149.604 370.282 149.5 370.618 149.292C370.954 149.084 371.214 148.784 371.398 148.392C371.59 148 371.686 147.536 371.686 147C371.686 146.456 371.59 145.992 371.398 145.608C371.214 145.216 370.954 144.916 370.618 144.708C370.282 144.5 369.886 144.396 369.43 144.396ZM374.002 150V144H374.542L374.59 145.5L374.494 145.416C374.606 145.088 374.774 144.812 374.998 144.588C375.222 144.356 375.49 144.18 375.802 144.06C376.114 143.94 376.45 143.88 376.81 143.88C377.258 143.88 377.654 143.964 377.998 144.132C378.342 144.3 378.61 144.548 378.802 144.876C379.002 145.204 379.102 145.616 379.102 146.112V150H378.502V146.304C378.502 145.648 378.338 145.168 378.01 144.864C377.69 144.56 377.27 144.408 376.75 144.408C376.374 144.408 376.022 144.496 375.694 144.672C375.374 144.84 375.11 145.088 374.902 145.416C374.702 145.744 374.602 146.144 374.602 146.616V150H374.002ZM324.512 161.996C324.36 162.436 324.132 162.816 323.828 163.136C323.532 163.456 323.172 163.7 322.748 163.868C322.332 164.036 321.864 164.12 321.344 164.12C320.624 164.12 319.992 163.956 319.448 163.628C318.912 163.292 318.492 162.82 318.188 162.212C317.892 161.604 317.744 160.88 317.744 160.04C317.744 159.2 317.892 158.476 318.188 157.868C318.484 157.26 318.9 156.792 319.436 156.464C319.98 156.128 320.612 155.96 321.332 155.96C321.868 155.96 322.336 156.036 322.736 156.188C323.144 156.332 323.488 156.552 323.768 156.848C324.048 157.136 324.26 157.492 324.404 157.916L323.816 158.192C323.632 157.64 323.34 157.224 322.94 156.944C322.54 156.656 322.016 156.512 321.368 156.512C320.776 156.512 320.252 156.656 319.796 156.944C319.348 157.224 318.996 157.628 318.74 158.156C318.492 158.676 318.368 159.304 318.368 160.04C318.368 160.768 318.492 161.396 318.74 161.924C318.988 162.452 319.336 162.86 319.784 163.148C320.232 163.428 320.752 163.568 321.344 163.568C321.984 163.568 322.528 163.416 322.976 163.112C323.424 162.8 323.736 162.352 323.912 161.768L324.512 161.996ZM328.485 164.12C327.933 164.12 327.441 163.996 327.009 163.748C326.577 163.5 326.237 163.144 325.989 162.68C325.749 162.208 325.629 161.648 325.629 161C325.629 160.352 325.749 159.796 325.989 159.332C326.237 158.86 326.569 158.5 326.985 158.252C327.401 158.004 327.877 157.88 328.413 157.88C328.957 157.88 329.421 158 329.805 158.24C330.189 158.48 330.485 158.816 330.693 159.248C330.901 159.672 331.005 160.164 331.005 160.724C331.005 160.796 331.001 160.868 330.993 160.94C330.993 161.004 330.989 161.064 330.981 161.12H326.001V160.58H330.717L330.417 160.664C330.409 159.976 330.225 159.428 329.865 159.02C329.513 158.612 329.025 158.408 328.401 158.408C327.969 158.408 327.589 158.512 327.261 158.72C326.933 158.92 326.677 159.216 326.493 159.608C326.309 159.992 326.217 160.456 326.217 161C326.217 161.536 326.309 162 326.493 162.392C326.685 162.784 326.949 163.084 327.285 163.292C327.629 163.492 328.025 163.592 328.473 163.592C328.937 163.592 329.333 163.492 329.661 163.292C329.997 163.092 330.257 162.816 330.441 162.464L330.921 162.74C330.777 163.028 330.585 163.276 330.345 163.484C330.105 163.684 329.829 163.84 329.517 163.952C329.205 164.064 328.861 164.12 328.485 164.12ZM332.716 164V158H333.256L333.304 159.5L333.208 159.416C333.32 159.088 333.488 158.812 333.712 158.588C333.936 158.356 334.204 158.18 334.516 158.06C334.828 157.94 335.164 157.88 335.524 157.88C335.972 157.88 336.368 157.964 336.712 158.132C337.056 158.3 337.324 158.548 337.516 158.876C337.716 159.204 337.816 159.616 337.816 160.112V164H337.216V160.304C337.216 159.648 337.052 159.168 336.724 158.864C336.404 158.56 335.984 158.408 335.464 158.408C335.088 158.408 334.736 158.496 334.408 158.672C334.088 158.84 333.824 159.088 333.616 159.416C333.416 159.744 333.316 160.144 333.316 160.616V164H332.716ZM340.732 156.332V162.416C340.732 162.792 340.82 163.08 340.996 163.28C341.18 163.472 341.444 163.568 341.788 163.568C342.012 163.568 342.208 163.532 342.376 163.46C342.552 163.38 342.708 163.268 342.844 163.124L343.072 163.616C342.92 163.768 342.728 163.892 342.496 163.988C342.264 164.076 342.004 164.12 341.716 164.12C341.404 164.12 341.128 164.064 340.888 163.952C340.648 163.832 340.46 163.652 340.324 163.412C340.196 163.172 340.132 162.868 340.132 162.5V156.5L340.732 156.332ZM342.976 158V158.516H338.932V158H342.976ZM346.707 164.12C346.155 164.12 345.663 163.996 345.231 163.748C344.799 163.5 344.459 163.144 344.211 162.68C343.971 162.208 343.851 161.648 343.851 161C343.851 160.352 343.971 159.796 344.211 159.332C344.459 158.86 344.791 158.5 345.207 158.252C345.623 158.004 346.099 157.88 346.635 157.88C347.179 157.88 347.643 158 348.027 158.24C348.411 158.48 348.707 158.816 348.915 159.248C349.123 159.672 349.227 160.164 349.227 160.724C349.227 160.796 349.223 160.868 349.215 160.94C349.215 161.004 349.211 161.064 349.203 161.12H344.223V160.58H348.939L348.639 160.664C348.631 159.976 348.447 159.428 348.087 159.02C347.735 158.612 347.247 158.408 346.623 158.408C346.191 158.408 345.811 158.512 345.483 158.72C345.155 158.92 344.899 159.216 344.715 159.608C344.531 159.992 344.439 160.456 344.439 161C344.439 161.536 344.531 162 344.715 162.392C344.907 162.784 345.171 163.084 345.507 163.292C345.851 163.492 346.247 163.592 346.695 163.592C347.159 163.592 347.555 163.492 347.883 163.292C348.219 163.092 348.479 162.816 348.663 162.464L349.143 162.74C348.999 163.028 348.807 163.276 348.567 163.484C348.327 163.684 348.051 163.84 347.739 163.952C347.427 164.064 347.083 164.12 346.707 164.12ZM350.939 164V158H351.443L351.515 159.26C351.667 158.836 351.911 158.5 352.247 158.252C352.583 158.004 352.987 157.88 353.459 157.88C353.619 157.88 353.763 157.896 353.891 157.928C354.019 157.96 354.123 158.012 354.203 158.084L354.071 158.612C353.983 158.556 353.887 158.512 353.783 158.48C353.679 158.448 353.523 158.432 353.315 158.432C353.011 158.432 352.723 158.528 352.451 158.72C352.179 158.904 351.959 159.164 351.791 159.5C351.623 159.828 351.539 160.208 351.539 160.64V164H350.939Z" fill="#555555"/>
<path d="M417.848 198.08V206H417.248V198.08H417.848ZM426.606 203.996C426.454 204.436 426.226 204.816 425.922 205.136C425.626 205.456 425.266 205.7 424.842 205.868C424.426 206.036 423.958 206.12 423.438 206.12C422.718 206.12 422.086 205.956 421.542 205.628C421.006 205.292 420.586 204.82 420.282 204.212C419.986 203.604 419.838 202.88 419.838 202.04C419.838 201.2 419.986 200.476 420.282 199.868C420.578 199.26 420.994 198.792 421.53 198.464C422.074 198.128 422.706 197.96 423.426 197.96C423.962 197.96 424.43 198.036 424.83 198.188C425.238 198.332 425.582 198.552 425.862 198.848C426.142 199.136 426.354 199.492 426.498 199.916L425.91 200.192C425.726 199.64 425.434 199.224 425.034 198.944C424.634 198.656 424.11 198.512 423.462 198.512C422.87 198.512 422.346 198.656 421.89 198.944C421.442 199.224 421.09 199.628 420.834 200.156C420.586 200.676 420.462 201.304 420.462 202.04C420.462 202.768 420.586 203.396 420.834 203.924C421.082 204.452 421.43 204.86 421.878 205.148C422.326 205.428 422.846 205.568 423.438 205.568C424.078 205.568 424.622 205.416 425.07 205.112C425.518 204.8 425.83 204.352 426.006 203.768L426.606 203.996ZM434.393 206H433.757L432.761 203.516H428.981L427.985 206H427.349L430.517 198.08H431.225L434.393 206ZM429.197 202.964H432.545L430.865 198.668L429.197 202.964ZM436.469 198.08V206H435.869V198.08H436.469Z" fill="#555555"/>
<path d="M454.696 158.96C455.424 158.96 456.036 159.104 456.532 159.392C457.036 159.68 457.42 160.12 457.684 160.712L457.18 161.096C456.948 160.536 456.62 160.132 456.196 159.884C455.78 159.636 455.264 159.512 454.648 159.512C454.176 159.512 453.776 159.588 453.448 159.74C453.12 159.884 452.868 160.08 452.692 160.328C452.524 160.568 452.44 160.84 452.44 161.144C452.44 161.512 452.56 161.816 452.8 162.056C453.04 162.296 453.48 162.488 454.12 162.632L455.68 162.968C456.456 163.136 457 163.38 457.312 163.7C457.632 164.012 457.792 164.416 457.792 164.912C457.792 165.344 457.664 165.728 457.408 166.064C457.16 166.4 456.816 166.66 456.376 166.844C455.936 167.028 455.42 167.12 454.828 167.12C454.26 167.12 453.752 167.044 453.304 166.892C452.864 166.732 452.492 166.512 452.188 166.232C451.884 165.944 451.66 165.6 451.516 165.2L452.044 164.792C452.156 165.168 452.34 165.492 452.596 165.764C452.86 166.028 453.184 166.228 453.568 166.364C453.952 166.5 454.38 166.568 454.852 166.568C455.3 166.568 455.7 166.508 456.052 166.388C456.404 166.26 456.676 166.076 456.868 165.836C457.068 165.596 457.168 165.3 457.168 164.948C457.168 164.612 457.048 164.328 456.808 164.096C456.576 163.864 456.16 163.688 455.56 163.568L453.928 163.208C453.424 163.096 453.016 162.948 452.704 162.764C452.392 162.58 452.164 162.36 452.02 162.104C451.884 161.84 451.816 161.544 451.816 161.216C451.816 160.808 451.932 160.436 452.164 160.1C452.396 159.756 452.728 159.48 453.16 159.272C453.592 159.064 454.104 158.96 454.696 158.96ZM460.278 159.08V167H459.678V159.08H460.278ZM469.035 164.996C468.883 165.436 468.655 165.816 468.351 166.136C468.055 166.456 467.695 166.7 467.271 166.868C466.855 167.036 466.387 167.12 465.867 167.12C465.147 167.12 464.515 166.956 463.971 166.628C463.435 166.292 463.015 165.82 462.711 165.212C462.415 164.604 462.267 163.88 462.267 163.04C462.267 162.2 462.415 161.476 462.711 160.868C463.007 160.26 463.423 159.792 463.959 159.464C464.503 159.128 465.135 158.96 465.855 158.96C466.391 158.96 466.859 159.036 467.259 159.188C467.667 159.332 468.011 159.552 468.291 159.848C468.571 160.136 468.783 160.492 468.927 160.916L468.339 161.192C468.155 160.64 467.863 160.224 467.463 159.944C467.063 159.656 466.539 159.512 465.891 159.512C465.299 159.512 464.775 159.656 464.319 159.944C463.871 160.224 463.519 160.628 463.263 161.156C463.015 161.676 462.891 162.304 462.891 163.04C462.891 163.768 463.015 164.396 463.263 164.924C463.511 165.452 463.859 165.86 464.307 166.148C464.755 166.428 465.275 166.568 465.867 166.568C466.507 166.568 467.051 166.416 467.499 166.112C467.947 165.8 468.259 165.352 468.435 164.768L469.035 164.996ZM476.823 167H476.187L475.191 164.516H471.411L470.415 167H469.779L472.947 159.08H473.655L476.823 167ZM471.627 163.964H474.975L473.295 159.668L471.627 163.964Z" fill="#555555"/>
<path d="M504.248 93V85.08H507.044C507.916 85.08 508.564 85.264 508.988 85.632C509.412 85.992 509.624 86.508 509.624 87.18C509.624 87.636 509.5 88.028 509.252 88.356C509.004 88.676 508.644 88.884 508.172 88.98V88.992C508.684 89.072 509.088 89.284 509.384 89.628C509.688 89.964 509.84 90.38 509.84 90.876C509.84 91.54 509.6 92.06 509.12 92.436C508.64 92.812 507.948 93 507.044 93H504.248ZM504.848 92.448H507.164C507.844 92.448 508.352 92.312 508.688 92.04C509.032 91.768 509.204 91.376 509.204 90.864C509.204 90.344 509.032 89.952 508.688 89.688C508.352 89.416 507.844 89.28 507.164 89.28H504.848V92.448ZM504.848 88.728H507.056C508.344 88.728 508.988 88.212 508.988 87.18C508.988 86.148 508.344 85.632 507.056 85.632H504.848V88.728ZM511.65 93V87H512.154L512.226 88.26C512.378 87.836 512.622 87.5 512.958 87.252C513.294 87.004 513.698 86.88 514.17 86.88C514.33 86.88 514.474 86.896 514.602 86.928C514.73 86.96 514.834 87.012 514.914 87.084L514.782 87.612C514.694 87.556 514.598 87.512 514.494 87.48C514.39 87.448 514.234 87.432 514.026 87.432C513.722 87.432 513.434 87.528 513.162 87.72C512.89 87.904 512.67 88.164 512.502 88.5C512.334 88.828 512.25 89.208 512.25 89.64V93H511.65ZM516.485 85.836C516.333 85.836 516.209 85.792 516.113 85.704C516.025 85.608 515.981 85.484 515.981 85.332C515.981 85.18 516.025 85.06 516.113 84.972C516.209 84.876 516.333 84.828 516.485 84.828C516.637 84.828 516.757 84.876 516.845 84.972C516.941 85.06 516.989 85.18 516.989 85.332C516.989 85.484 516.941 85.608 516.845 85.704C516.757 85.792 516.637 85.836 516.485 85.836ZM516.785 87V93H516.185V87H516.785ZM519.468 84.24V91.584C519.468 91.952 519.532 92.212 519.66 92.364C519.788 92.516 519.988 92.592 520.26 92.592C520.428 92.592 520.56 92.58 520.656 92.556C520.76 92.532 520.88 92.492 521.016 92.436L520.932 92.964C520.828 93.012 520.708 93.048 520.572 93.072C520.444 93.104 520.3 93.12 520.14 93.12C519.716 93.12 519.396 93 519.18 92.76C518.972 92.512 518.868 92.128 518.868 91.608V84.24H519.468ZM522.761 84.24V91.584C522.761 91.952 522.825 92.212 522.953 92.364C523.081 92.516 523.281 92.592 523.553 92.592C523.721 92.592 523.853 92.58 523.949 92.556C524.053 92.532 524.173 92.492 524.309 92.436L524.225 92.964C524.121 93.012 524.001 93.048 523.865 93.072C523.737 93.104 523.593 93.12 523.433 93.12C523.009 93.12 522.689 93 522.473 92.76C522.265 92.512 522.161 92.128 522.161 91.608V84.24H522.761ZM525.802 85.836C525.65 85.836 525.526 85.792 525.43 85.704C525.342 85.608 525.298 85.484 525.298 85.332C525.298 85.18 525.342 85.06 525.43 84.972C525.526 84.876 525.65 84.828 525.802 84.828C525.954 84.828 526.074 84.876 526.162 84.972C526.258 85.06 526.306 85.18 526.306 85.332C526.306 85.484 526.258 85.608 526.162 85.704C526.074 85.792 525.954 85.836 525.802 85.836ZM526.102 87V93H525.502V87H526.102ZM531.904 89.052C531.904 88.532 531.764 88.128 531.484 87.84C531.204 87.552 530.804 87.408 530.284 87.408C529.828 87.408 529.436 87.508 529.108 87.708C528.78 87.9 528.536 88.224 528.376 88.68L527.884 88.368C528.06 87.896 528.352 87.532 528.76 87.276C529.176 87.012 529.688 86.88 530.296 86.88C530.736 86.88 531.12 86.96 531.448 87.12C531.784 87.272 532.044 87.5 532.228 87.804C532.412 88.108 532.504 88.488 532.504 88.944V91.944C532.504 92.368 532.696 92.58 533.08 92.58C533.248 92.58 533.392 92.552 533.512 92.496L533.476 92.976C533.34 93.048 533.164 93.084 532.948 93.084C532.764 93.084 532.592 93.048 532.432 92.976C532.272 92.904 532.14 92.784 532.036 92.616C531.94 92.448 531.892 92.22 531.892 91.932V91.608L532.06 91.596C531.988 91.94 531.828 92.228 531.58 92.46C531.34 92.684 531.06 92.852 530.74 92.964C530.42 93.068 530.1 93.12 529.78 93.12C529.404 93.12 529.068 93.06 528.772 92.94C528.476 92.82 528.244 92.648 528.076 92.424C527.908 92.192 527.824 91.908 527.824 91.572C527.824 91.124 527.972 90.764 528.268 90.492C528.572 90.212 528.996 90.02 529.54 89.916L532.024 89.424V89.928L529.84 90.36C529.368 90.456 529.016 90.596 528.784 90.78C528.552 90.964 528.436 91.216 528.436 91.536C528.436 91.864 528.56 92.124 528.808 92.316C529.056 92.5 529.408 92.592 529.864 92.592C530.096 92.592 530.332 92.56 530.572 92.496C530.812 92.432 531.032 92.332 531.232 92.196C531.44 92.052 531.604 91.876 531.724 91.668C531.844 91.452 531.904 91.192 531.904 90.888V89.052ZM534.748 93V87H535.288L535.336 88.5L535.24 88.416C535.352 88.088 535.52 87.812 535.744 87.588C535.968 87.356 536.236 87.18 536.548 87.06C536.86 86.94 537.196 86.88 537.556 86.88C538.004 86.88 538.4 86.964 538.744 87.132C539.088 87.3 539.356 87.548 539.548 87.876C539.748 88.204 539.848 88.616 539.848 89.112V93H539.248V89.304C539.248 88.648 539.084 88.168 538.756 87.864C538.436 87.56 538.016 87.408 537.496 87.408C537.12 87.408 536.768 87.496 536.44 87.672C536.12 87.84 535.856 88.088 535.648 88.416C535.448 88.744 535.348 89.144 535.348 89.616V93H534.748ZM542.763 85.332V91.416C542.763 91.792 542.851 92.08 543.027 92.28C543.211 92.472 543.475 92.568 543.819 92.568C544.043 92.568 544.239 92.532 544.407 92.46C544.583 92.38 544.739 92.268 544.875 92.124L545.103 92.616C544.951 92.768 544.759 92.892 544.527 92.988C544.295 93.076 544.035 93.12 543.747 93.12C543.435 93.12 543.159 93.064 542.919 92.952C542.679 92.832 542.491 92.652 542.355 92.412C542.227 92.172 542.163 91.868 542.163 91.5V85.5L542.763 85.332ZM545.007 87V87.516H540.963V87H545.007ZM510.272 107H509.636L508.64 104.516H504.86L503.864 107H503.228L506.396 99.08H507.104L510.272 107ZM505.076 103.964H508.424L506.744 99.668L505.076 103.964ZM513.586 107.12C513.17 107.12 512.798 107.044 512.47 106.892C512.142 106.74 511.882 106.504 511.69 106.184C511.506 105.856 511.414 105.448 511.414 104.96V101H512.014V104.816C512.014 105.44 512.162 105.892 512.458 106.172C512.762 106.452 513.186 106.592 513.73 106.592C514.05 106.592 514.338 106.536 514.594 106.424C514.858 106.312 515.082 106.156 515.266 105.956C515.45 105.756 515.59 105.528 515.686 105.272C515.79 105.016 515.842 104.74 515.842 104.444V101H516.442V107H515.902L515.878 105.764C515.702 106.188 515.414 106.52 515.014 106.76C514.614 107 514.138 107.12 513.586 107.12ZM518.576 107V101H519.08L519.152 102.26C519.304 101.836 519.548 101.5 519.884 101.252C520.22 101.004 520.624 100.88 521.096 100.88C521.256 100.88 521.4 100.896 521.528 100.928C521.656 100.96 521.76 101.012 521.84 101.084L521.708 101.612C521.62 101.556 521.524 101.512 521.42 101.48C521.316 101.448 521.16 101.432 520.952 101.432C520.648 101.432 520.36 101.528 520.088 101.72C519.816 101.904 519.596 102.164 519.428 102.5C519.26 102.828 519.176 103.208 519.176 103.64V107H518.576ZM526.631 103.052C526.631 102.532 526.491 102.128 526.211 101.84C525.931 101.552 525.531 101.408 525.011 101.408C524.555 101.408 524.163 101.508 523.835 101.708C523.507 101.9 523.263 102.224 523.103 102.68L522.611 102.368C522.787 101.896 523.079 101.532 523.487 101.276C523.903 101.012 524.415 100.88 525.023 100.88C525.463 100.88 525.847 100.96 526.175 101.12C526.511 101.272 526.771 101.5 526.955 101.804C527.139 102.108 527.231 102.488 527.231 102.944V105.944C527.231 106.368 527.423 106.58 527.807 106.58C527.975 106.58 528.119 106.552 528.239 106.496L528.203 106.976C528.067 107.048 527.891 107.084 527.675 107.084C527.491 107.084 527.319 107.048 527.159 106.976C526.999 106.904 526.867 106.784 526.763 106.616C526.667 106.448 526.619 106.22 526.619 105.932V105.608L526.787 105.596C526.715 105.94 526.555 106.228 526.307 106.46C526.067 106.684 525.787 106.852 525.467 106.964C525.147 107.068 524.827 107.12 524.507 107.12C524.131 107.12 523.795 107.06 523.499 106.94C523.203 106.82 522.971 106.648 522.803 106.424C522.635 106.192 522.551 105.908 522.551 105.572C522.551 105.124 522.699 104.764 522.995 104.492C523.299 104.212 523.723 104.02 524.267 103.916L526.751 103.424V103.928L524.567 104.36C524.095 104.456 523.743 104.596 523.511 104.78C523.279 104.964 523.163 105.216 523.163 105.536C523.163 105.864 523.287 106.124 523.535 106.316C523.783 106.5 524.135 106.592 524.591 106.592C524.823 106.592 525.059 106.56 525.299 106.496C525.539 106.432 525.759 106.332 525.959 106.196C526.167 106.052 526.331 105.876 526.451 105.668C526.571 105.452 526.631 105.192 526.631 104.888V103.052Z" fill="#555555"/>
<path d="M500.832 289L498.36 281.08H498.984L501.216 288.448L503.28 281.08H503.976L506.052 288.46L508.284 281.08H508.884L506.412 289H505.668L504.072 283.444L503.628 281.728H503.616L503.172 283.444L501.576 289H500.832ZM512.344 282.88C512.904 282.88 513.396 283.004 513.82 283.252C514.252 283.5 514.588 283.86 514.828 284.332C515.076 284.796 515.2 285.352 515.2 286C515.2 286.648 515.076 287.208 514.828 287.68C514.588 288.144 514.252 288.5 513.82 288.748C513.396 288.996 512.904 289.12 512.344 289.12C511.784 289.12 511.288 288.996 510.856 288.748C510.432 288.5 510.096 288.144 509.848 287.68C509.608 287.208 509.488 286.648 509.488 286C509.488 285.352 509.608 284.796 509.848 284.332C510.096 283.86 510.432 283.5 510.856 283.252C511.288 283.004 511.784 282.88 512.344 282.88ZM512.344 283.396C511.888 283.396 511.492 283.5 511.156 283.708C510.82 283.916 510.556 284.216 510.364 284.608C510.18 284.992 510.088 285.456 510.088 286C510.088 286.536 510.18 287 510.364 287.392C510.556 287.784 510.82 288.084 511.156 288.292C511.492 288.5 511.888 288.604 512.344 288.604C512.8 288.604 513.196 288.5 513.532 288.292C513.868 288.084 514.128 287.784 514.312 287.392C514.504 287 514.6 286.536 514.6 286C514.6 285.456 514.504 284.992 514.312 284.608C514.128 284.216 513.868 283.916 513.532 283.708C513.196 283.5 512.8 283.396 512.344 283.396ZM516.916 289V283H517.42L517.492 284.26C517.644 283.836 517.888 283.5 518.224 283.252C518.56 283.004 518.964 282.88 519.436 282.88C519.596 282.88 519.74 282.896 519.868 282.928C519.996 282.96 520.1 283.012 520.18 283.084L520.048 283.612C519.96 283.556 519.864 283.512 519.76 283.48C519.656 283.448 519.5 283.432 519.292 283.432C518.988 283.432 518.7 283.528 518.428 283.72C518.156 283.904 517.936 284.164 517.768 284.5C517.6 284.828 517.516 285.208 517.516 285.64V289H516.916ZM526.395 283L523.755 285.544L523.611 285.688L521.751 287.488V286.72L525.615 283H526.395ZM522.051 280.24V289H521.451V280.24H522.051ZM523.791 285.232L526.491 289H525.759L523.299 285.58L523.791 285.232ZM528.079 281.836C527.927 281.836 527.803 281.792 527.707 281.704C527.619 281.608 527.575 281.484 527.575 281.332C527.575 281.18 527.619 281.06 527.707 280.972C527.803 280.876 527.927 280.828 528.079 280.828C528.231 280.828 528.351 280.876 528.439 280.972C528.535 281.06 528.583 281.18 528.583 281.332C528.583 281.484 528.535 281.608 528.439 281.704C528.351 281.792 528.231 281.836 528.079 281.836ZM528.379 283V289H527.779V283H528.379ZM532.957 289.12C532.405 289.12 531.913 288.996 531.481 288.748C531.049 288.5 530.709 288.144 530.461 287.68C530.221 287.208 530.101 286.648 530.101 286C530.101 285.352 530.221 284.796 530.461 284.332C530.709 283.86 531.041 283.5 531.457 283.252C531.873 283.004 532.349 282.88 532.885 282.88C533.429 282.88 533.893 283 534.277 283.24C534.661 283.48 534.957 283.816 535.165 284.248C535.373 284.672 535.477 285.164 535.477 285.724C535.477 285.796 535.473 285.868 535.465 285.94C535.465 286.004 535.461 286.064 535.453 286.12H530.473V285.58H535.189L534.889 285.664C534.881 284.976 534.697 284.428 534.337 284.02C533.985 283.612 533.497 283.408 532.873 283.408C532.441 283.408 532.061 283.512 531.733 283.72C531.405 283.92 531.149 284.216 530.965 284.608C530.781 284.992 530.689 285.456 530.689 286C530.689 286.536 530.781 287 530.965 287.392C531.157 287.784 531.421 288.084 531.757 288.292C532.101 288.492 532.497 288.592 532.945 288.592C533.409 288.592 533.805 288.492 534.133 288.292C534.469 288.092 534.729 287.816 534.913 287.464L535.393 287.74C535.249 288.028 535.057 288.276 534.817 288.484C534.577 288.684 534.301 288.84 533.989 288.952C533.677 289.064 533.333 289.12 532.957 289.12ZM499.248 303V295.08H502.044C502.916 295.08 503.564 295.264 503.988 295.632C504.412 295.992 504.624 296.508 504.624 297.18C504.624 297.636 504.5 298.028 504.252 298.356C504.004 298.676 503.644 298.884 503.172 298.98V298.992C503.684 299.072 504.088 299.284 504.384 299.628C504.688 299.964 504.84 300.38 504.84 300.876C504.84 301.54 504.6 302.06 504.12 302.436C503.64 302.812 502.948 303 502.044 303H499.248ZM499.848 302.448H502.164C502.844 302.448 503.352 302.312 503.688 302.04C504.032 301.768 504.204 301.376 504.204 300.864C504.204 300.344 504.032 299.952 503.688 299.688C503.352 299.416 502.844 299.28 502.164 299.28H499.848V302.448ZM499.848 298.728H502.056C503.344 298.728 503.988 298.212 503.988 297.18C503.988 296.148 503.344 295.632 502.056 295.632H499.848V298.728ZM506.65 303V297H507.154L507.226 298.26C507.378 297.836 507.622 297.5 507.958 297.252C508.294 297.004 508.698 296.88 509.17 296.88C509.33 296.88 509.474 296.896 509.602 296.928C509.73 296.96 509.834 297.012 509.914 297.084L509.782 297.612C509.694 297.556 509.598 297.512 509.494 297.48C509.39 297.448 509.234 297.432 509.026 297.432C508.722 297.432 508.434 297.528 508.162 297.72C507.89 297.904 507.67 298.164 507.502 298.5C507.334 298.828 507.25 299.208 507.25 299.64V303H506.65ZM511.485 295.836C511.333 295.836 511.209 295.792 511.113 295.704C511.025 295.608 510.981 295.484 510.981 295.332C510.981 295.18 511.025 295.06 511.113 294.972C511.209 294.876 511.333 294.828 511.485 294.828C511.637 294.828 511.757 294.876 511.845 294.972C511.941 295.06 511.989 295.18 511.989 295.332C511.989 295.484 511.941 295.608 511.845 295.704C511.757 295.792 511.637 295.836 511.485 295.836ZM511.785 297V303H511.185V297H511.785ZM514.468 294.24V301.584C514.468 301.952 514.532 302.212 514.66 302.364C514.788 302.516 514.988 302.592 515.26 302.592C515.428 302.592 515.56 302.58 515.656 302.556C515.76 302.532 515.88 302.492 516.016 302.436L515.932 302.964C515.828 303.012 515.708 303.048 515.572 303.072C515.444 303.104 515.3 303.12 515.14 303.12C514.716 303.12 514.396 303 514.18 302.76C513.972 302.512 513.868 302.128 513.868 301.608V294.24H514.468ZM517.761 294.24V301.584C517.761 301.952 517.825 302.212 517.953 302.364C518.081 302.516 518.281 302.592 518.553 302.592C518.721 302.592 518.853 302.58 518.949 302.556C519.053 302.532 519.173 302.492 519.309 302.436L519.225 302.964C519.121 303.012 519.001 303.048 518.865 303.072C518.737 303.104 518.593 303.12 518.433 303.12C518.009 303.12 517.689 303 517.473 302.76C517.265 302.512 517.161 302.128 517.161 301.608V294.24H517.761ZM520.802 295.836C520.65 295.836 520.526 295.792 520.43 295.704C520.342 295.608 520.298 295.484 520.298 295.332C520.298 295.18 520.342 295.06 520.43 294.972C520.526 294.876 520.65 294.828 520.802 294.828C520.954 294.828 521.074 294.876 521.162 294.972C521.258 295.06 521.306 295.18 521.306 295.332C521.306 295.484 521.258 295.608 521.162 295.704C521.074 295.792 520.954 295.836 520.802 295.836ZM521.102 297V303H520.502V297H521.102ZM526.904 299.052C526.904 298.532 526.764 298.128 526.484 297.84C526.204 297.552 525.804 297.408 525.284 297.408C524.828 297.408 524.436 297.508 524.108 297.708C523.78 297.9 523.536 298.224 523.376 298.68L522.884 298.368C523.06 297.896 523.352 297.532 523.76 297.276C524.176 297.012 524.688 296.88 525.296 296.88C525.736 296.88 526.12 296.96 526.448 297.12C526.784 297.272 527.044 297.5 527.228 297.804C527.412 298.108 527.504 298.488 527.504 298.944V301.944C527.504 302.368 527.696 302.58 528.08 302.58C528.248 302.58 528.392 302.552 528.512 302.496L528.476 302.976C528.34 303.048 528.164 303.084 527.948 303.084C527.764 303.084 527.592 303.048 527.432 302.976C527.272 302.904 527.14 302.784 527.036 302.616C526.94 302.448 526.892 302.22 526.892 301.932V301.608L527.06 301.596C526.988 301.94 526.828 302.228 526.58 302.46C526.34 302.684 526.06 302.852 525.74 302.964C525.42 303.068 525.1 303.12 524.78 303.12C524.404 303.12 524.068 303.06 523.772 302.94C523.476 302.82 523.244 302.648 523.076 302.424C522.908 302.192 522.824 301.908 522.824 301.572C522.824 301.124 522.972 300.764 523.268 300.492C523.572 300.212 523.996 300.02 524.54 299.916L527.024 299.424V299.928L524.84 300.36C524.368 300.456 524.016 300.596 523.784 300.78C523.552 300.964 523.436 301.216 523.436 301.536C523.436 301.864 523.56 302.124 523.808 302.316C524.056 302.5 524.408 302.592 524.864 302.592C525.096 302.592 525.332 302.56 525.572 302.496C525.812 302.432 526.032 302.332 526.232 302.196C526.44 302.052 526.604 301.876 526.724 301.668C526.844 301.452 526.904 301.192 526.904 300.888V299.052ZM529.748 303V297H530.288L530.336 298.5L530.24 298.416C530.352 298.088 530.52 297.812 530.744 297.588C530.968 297.356 531.236 297.18 531.548 297.06C531.86 296.94 532.196 296.88 532.556 296.88C533.004 296.88 533.4 296.964 533.744 297.132C534.088 297.3 534.356 297.548 534.548 297.876C534.748 298.204 534.848 298.616 534.848 299.112V303H534.248V299.304C534.248 298.648 534.084 298.168 533.756 297.864C533.436 297.56 533.016 297.408 532.496 297.408C532.12 297.408 531.768 297.496 531.44 297.672C531.12 297.84 530.856 298.088 530.648 298.416C530.448 298.744 530.348 299.144 530.348 299.616V303H529.748ZM537.763 295.332V301.416C537.763 301.792 537.851 302.08 538.027 302.28C538.211 302.472 538.475 302.568 538.819 302.568C539.043 302.568 539.239 302.532 539.407 302.46C539.583 302.38 539.739 302.268 539.875 302.124L540.103 302.616C539.951 302.768 539.759 302.892 539.527 302.988C539.295 303.076 539.035 303.12 538.747 303.12C538.435 303.12 538.159 303.064 537.919 302.952C537.679 302.832 537.491 302.652 537.355 302.412C537.227 302.172 537.163 301.868 537.163 301.5V295.5L537.763 295.332ZM540.007 297V297.516H535.963V297H540.007ZM501.696 308.96C502.424 308.96 503.036 309.104 503.532 309.392C504.036 309.68 504.42 310.12 504.684 310.712L504.18 311.096C503.948 310.536 503.62 310.132 503.196 309.884C502.78 309.636 502.264 309.512 501.648 309.512C501.176 309.512 500.776 309.588 500.448 309.74C500.12 309.884 499.868 310.08 499.692 310.328C499.524 310.568 499.44 310.84 499.44 311.144C499.44 311.512 499.56 311.816 499.8 312.056C500.04 312.296 500.48 312.488 501.12 312.632L502.68 312.968C503.456 313.136 504 313.38 504.312 313.7C504.632 314.012 504.792 314.416 504.792 314.912C504.792 315.344 504.664 315.728 504.408 316.064C504.16 316.4 503.816 316.66 503.376 316.844C502.936 317.028 502.42 317.12 501.828 317.12C501.26 317.12 500.752 317.044 500.304 316.892C499.864 316.732 499.492 316.512 499.188 316.232C498.884 315.944 498.66 315.6 498.516 315.2L499.044 314.792C499.156 315.168 499.34 315.492 499.596 315.764C499.86 316.028 500.184 316.228 500.568 316.364C500.952 316.5 501.38 316.568 501.852 316.568C502.3 316.568 502.7 316.508 503.052 316.388C503.404 316.26 503.676 316.076 503.868 315.836C504.068 315.596 504.168 315.3 504.168 314.948C504.168 314.612 504.048 314.328 503.808 314.096C503.576 313.864 503.16 313.688 502.56 313.568L500.928 313.208C500.424 313.096 500.016 312.948 499.704 312.764C499.392 312.58 499.164 312.36 499.02 312.104C498.884 311.84 498.816 311.544 498.816 311.216C498.816 310.808 498.932 310.436 499.164 310.1C499.396 309.756 499.728 309.48 500.16 309.272C500.592 309.064 501.104 308.96 501.696 308.96ZM508.946 310.88C509.506 310.88 509.998 311.004 510.422 311.252C510.854 311.5 511.19 311.86 511.43 312.332C511.678 312.796 511.802 313.352 511.802 314C511.802 314.648 511.678 315.208 511.43 315.68C511.19 316.144 510.854 316.5 510.422 316.748C509.998 316.996 509.506 317.12 508.946 317.12C508.386 317.12 507.89 316.996 507.458 316.748C507.034 316.5 506.698 316.144 506.45 315.68C506.21 315.208 506.09 314.648 506.09 314C506.09 313.352 506.21 312.796 506.45 312.332C506.698 311.86 507.034 311.5 507.458 311.252C507.89 311.004 508.386 310.88 508.946 310.88ZM508.946 311.396C508.49 311.396 508.094 311.5 507.758 311.708C507.422 311.916 507.158 312.216 506.966 312.608C506.782 312.992 506.69 313.456 506.69 314C506.69 314.536 506.782 315 506.966 315.392C507.158 315.784 507.422 316.084 507.758 316.292C508.094 316.5 508.49 316.604 508.946 316.604C509.402 316.604 509.798 316.5 510.134 316.292C510.47 316.084 510.73 315.784 510.914 315.392C511.106 315 511.202 314.536 511.202 314C511.202 313.456 511.106 312.992 510.914 312.608C510.73 312.216 510.47 311.916 510.134 311.708C509.798 311.5 509.402 311.396 508.946 311.396ZM514.069 308.24V315.584C514.069 315.952 514.133 316.212 514.261 316.364C514.389 316.516 514.589 316.592 514.861 316.592C515.029 316.592 515.161 316.58 515.257 316.556C515.361 316.532 515.481 316.492 515.617 316.436L515.533 316.964C515.429 317.012 515.309 317.048 515.173 317.072C515.045 317.104 514.901 317.12 514.741 317.12C514.317 317.12 513.997 317 513.781 316.76C513.573 316.512 513.469 316.128 513.469 315.608V308.24H514.069ZM517.11 309.836C516.958 309.836 516.834 309.792 516.738 309.704C516.65 309.608 516.606 309.484 516.606 309.332C516.606 309.18 516.65 309.06 516.738 308.972C516.834 308.876 516.958 308.828 517.11 308.828C517.262 308.828 517.382 308.876 517.47 308.972C517.566 309.06 517.614 309.18 517.614 309.332C517.614 309.484 517.566 309.608 517.47 309.704C517.382 309.792 517.262 309.836 517.11 309.836ZM517.41 311V317H516.81V311H517.41ZM520.537 309.332V315.416C520.537 315.792 520.625 316.08 520.801 316.28C520.985 316.472 521.249 316.568 521.593 316.568C521.817 316.568 522.013 316.532 522.181 316.46C522.357 316.38 522.513 316.268 522.649 316.124L522.877 316.616C522.725 316.768 522.533 316.892 522.301 316.988C522.069 317.076 521.809 317.12 521.521 317.12C521.209 317.12 520.933 317.064 520.693 316.952C520.453 316.832 520.265 316.652 520.129 316.412C520.001 316.172 519.937 315.868 519.937 315.5V309.5L520.537 309.332ZM522.781 311V311.516H518.737V311H522.781ZM527.736 313.052C527.736 312.532 527.596 312.128 527.316 311.84C527.036 311.552 526.636 311.408 526.116 311.408C525.66 311.408 525.268 311.508 524.94 311.708C524.612 311.9 524.368 312.224 524.208 312.68L523.716 312.368C523.892 311.896 524.184 311.532 524.592 311.276C525.008 311.012 525.52 310.88 526.128 310.88C526.568 310.88 526.952 310.96 527.28 311.12C527.616 311.272 527.876 311.5 528.06 311.804C528.244 312.108 528.336 312.488 528.336 312.944V315.944C528.336 316.368 528.528 316.58 528.912 316.58C529.08 316.58 529.224 316.552 529.344 316.496L529.308 316.976C529.172 317.048 528.996 317.084 528.78 317.084C528.596 317.084 528.424 317.048 528.264 316.976C528.104 316.904 527.972 316.784 527.868 316.616C527.772 316.448 527.724 316.22 527.724 315.932V315.608L527.892 315.596C527.82 315.94 527.66 316.228 527.412 316.46C527.172 316.684 526.892 316.852 526.572 316.964C526.252 317.068 525.932 317.12 525.612 317.12C525.236 317.12 524.9 317.06 524.604 316.94C524.308 316.82 524.076 316.648 523.908 316.424C523.74 316.192 523.656 315.908 523.656 315.572C523.656 315.124 523.804 314.764 524.1 314.492C524.404 314.212 524.828 314.02 525.372 313.916L527.856 313.424V313.928L525.672 314.36C525.2 314.456 524.848 314.596 524.616 314.78C524.384 314.964 524.268 315.216 524.268 315.536C524.268 315.864 524.392 316.124 524.64 316.316C524.888 316.5 525.24 316.592 525.696 316.592C525.928 316.592 526.164 316.56 526.404 316.496C526.644 316.432 526.864 316.332 527.064 316.196C527.272 316.052 527.436 315.876 527.556 315.668C527.676 315.452 527.736 315.192 527.736 314.888V313.052ZM530.58 317V311H531.084L531.156 312.26C531.308 311.836 531.552 311.5 531.888 311.252C532.224 311.004 532.628 310.88 533.1 310.88C533.26 310.88 533.404 310.896 533.532 310.928C533.66 310.96 533.764 311.012 533.844 311.084L533.712 311.612C533.624 311.556 533.528 311.512 533.424 311.48C533.32 311.448 533.164 311.432 532.956 311.432C532.652 311.432 532.364 311.528 532.092 311.72C531.82 311.904 531.6 312.164 531.432 312.5C531.264 312.828 531.18 313.208 531.18 313.64V317H530.58ZM537.282 317.12C536.73 317.12 536.238 316.996 535.806 316.748C535.374 316.5 535.034 316.144 534.786 315.68C534.546 315.208 534.426 314.648 534.426 314C534.426 313.352 534.546 312.796 534.786 312.332C535.034 311.86 535.366 311.5 535.782 311.252C536.198 311.004 536.674 310.88 537.21 310.88C537.754 310.88 538.218 311 538.602 311.24C538.986 311.48 539.282 311.816 539.49 312.248C539.698 312.672 539.802 313.164 539.802 313.724C539.802 313.796 539.798 313.868 539.79 313.94C539.79 314.004 539.786 314.064 539.778 314.12H534.798V313.58H539.514L539.214 313.664C539.206 312.976 539.022 312.428 538.662 312.02C538.31 311.612 537.822 311.408 537.198 311.408C536.766 311.408 536.386 311.512 536.058 311.72C535.73 311.92 535.474 312.216 535.29 312.608C535.106 312.992 535.014 313.456 535.014 314C535.014 314.536 535.106 315 535.29 315.392C535.482 315.784 535.746 316.084 536.082 316.292C536.426 316.492 536.822 316.592 537.27 316.592C537.734 316.592 538.13 316.492 538.458 316.292C538.794 316.092 539.054 315.816 539.238 315.464L539.718 315.74C539.574 316.028 539.382 316.276 539.142 316.484C538.902 316.684 538.626 316.84 538.314 316.952C538.002 317.064 537.658 317.12 537.282 317.12Z" fill="#555555"/>
<path d="M19.616 270.08V278H19.04V272.096L19.112 270.656H19.1L16.208 278H15.656L12.764 270.656H12.752L12.824 272.096V278H12.248V270.08H13.148L15.536 276.08L15.932 277.292H15.944L16.328 276.092L18.716 270.08H19.616ZM25.5369 274.052C25.5369 273.532 25.3969 273.128 25.1169 272.84C24.8369 272.552 24.4369 272.408 23.9169 272.408C23.4609 272.408 23.0689 272.508 22.7409 272.708C22.4129 272.9 22.1689 273.224 22.0089 273.68L21.5169 273.368C21.6929 272.896 21.9849 272.532 22.3929 272.276C22.8089 272.012 23.3209 271.88 23.9289 271.88C24.3689 271.88 24.7529 271.96 25.0809 272.12C25.4169 272.272 25.6769 272.5 25.8609 272.804C26.0449 273.108 26.1369 273.488 26.1369 273.944V276.944C26.1369 277.368 26.3289 277.58 26.7129 277.58C26.8809 277.58 27.0249 277.552 27.1449 277.496L27.1089 277.976C26.9729 278.048 26.7969 278.084 26.5809 278.084C26.3969 278.084 26.2249 278.048 26.0649 277.976C25.9049 277.904 25.7729 277.784 25.6689 277.616C25.5729 277.448 25.5249 277.22 25.5249 276.932V276.608L25.6929 276.596C25.6209 276.94 25.4609 277.228 25.2129 277.46C24.9729 277.684 24.6929 277.852 24.3729 277.964C24.0529 278.068 23.7329 278.12 23.4129 278.12C23.0369 278.12 22.7009 278.06 22.4049 277.94C22.1089 277.82 21.8769 277.648 21.7089 277.424C21.5409 277.192 21.4569 276.908 21.4569 276.572C21.4569 276.124 21.6049 275.764 21.9009 275.492C22.2049 275.212 22.6289 275.02 23.1729 274.916L25.6569 274.424V274.928L23.4729 275.36C23.0009 275.456 22.6489 275.596 22.4169 275.78C22.1849 275.964 22.0689 276.216 22.0689 276.536C22.0689 276.864 22.1929 277.124 22.4409 277.316C22.6889 277.5 23.0409 277.592 23.4969 277.592C23.7289 277.592 23.9649 277.56 24.2049 277.496C24.4449 277.432 24.6649 277.332 24.8649 277.196C25.0729 277.052 25.2369 276.876 25.3569 276.668C25.4769 276.452 25.5369 276.192 25.5369 275.888V274.052ZM28.3805 278V272H28.8845L28.9565 273.26C29.1085 272.836 29.3525 272.5 29.6885 272.252C30.0245 272.004 30.4285 271.88 30.9005 271.88C31.0605 271.88 31.2045 271.896 31.3325 271.928C31.4605 271.96 31.5645 272.012 31.6445 272.084L31.5125 272.612C31.4245 272.556 31.3285 272.512 31.2245 272.48C31.1205 272.448 30.9645 272.432 30.7565 272.432C30.4525 272.432 30.1645 272.528 29.8925 272.72C29.6205 272.904 29.4005 273.164 29.2325 273.5C29.0645 273.828 28.9805 274.208 28.9805 274.64V278H28.3805ZM32.9157 278V272H33.4197L33.4917 273.26C33.6437 272.836 33.8877 272.5 34.2237 272.252C34.5597 272.004 34.9637 271.88 35.4357 271.88C35.5957 271.88 35.7397 271.896 35.8677 271.928C35.9957 271.96 36.0997 272.012 36.1797 272.084L36.0477 272.612C35.9597 272.556 35.8637 272.512 35.7597 272.48C35.6557 272.448 35.4997 272.432 35.2917 272.432C34.9877 272.432 34.6997 272.528 34.4277 272.72C34.1557 272.904 33.9357 273.164 33.7677 273.5C33.5997 273.828 33.5157 274.208 33.5157 274.64V278H32.9157ZM37.7508 270.836C37.5988 270.836 37.4748 270.792 37.3788 270.704C37.2908 270.608 37.2468 270.484 37.2468 270.332C37.2468 270.18 37.2908 270.06 37.3788 269.972C37.4748 269.876 37.5988 269.828 37.7508 269.828C37.9028 269.828 38.0228 269.876 38.1108 269.972C38.2068 270.06 38.2548 270.18 38.2548 270.332C38.2548 270.484 38.2068 270.608 38.1108 270.704C38.0228 270.792 37.9028 270.836 37.7508 270.836ZM38.0508 272V278H37.4508V272H38.0508ZM42.6293 271.88C43.1893 271.88 43.6813 272.004 44.1053 272.252C44.5373 272.5 44.8733 272.86 45.1133 273.332C45.3613 273.796 45.4853 274.352 45.4853 275C45.4853 275.648 45.3613 276.208 45.1133 276.68C44.8733 277.144 44.5373 277.5 44.1053 277.748C43.6813 277.996 43.1893 278.12 42.6293 278.12C42.0693 278.12 41.5733 277.996 41.1413 277.748C40.7173 277.5 40.3813 277.144 40.1333 276.68C39.8933 276.208 39.7733 275.648 39.7733 275C39.7733 274.352 39.8933 273.796 40.1333 273.332C40.3813 272.86 40.7173 272.5 41.1413 272.252C41.5733 272.004 42.0693 271.88 42.6293 271.88ZM42.6293 272.396C42.1733 272.396 41.7773 272.5 41.4413 272.708C41.1053 272.916 40.8413 273.216 40.6493 273.608C40.4653 273.992 40.3733 274.456 40.3733 275C40.3733 275.536 40.4653 276 40.6493 276.392C40.8413 276.784 41.1053 277.084 41.4413 277.292C41.7773 277.5 42.1733 277.604 42.6293 277.604C43.0853 277.604 43.4813 277.5 43.8173 277.292C44.1533 277.084 44.4133 276.784 44.5973 276.392C44.7893 276 44.8853 275.536 44.8853 275C44.8853 274.456 44.7893 273.992 44.5973 273.608C44.4133 273.216 44.1533 272.916 43.8173 272.708C43.4813 272.5 43.0853 272.396 42.6293 272.396ZM48.0913 270.332V276.416C48.0913 276.792 48.1793 277.08 48.3553 277.28C48.5393 277.472 48.8033 277.568 49.1473 277.568C49.3713 277.568 49.5673 277.532 49.7353 277.46C49.9113 277.38 50.0673 277.268 50.2033 277.124L50.4313 277.616C50.2793 277.768 50.0873 277.892 49.8553 277.988C49.6233 278.076 49.3633 278.12 49.0753 278.12C48.7633 278.12 48.4873 278.064 48.2473 277.952C48.0073 277.832 47.8193 277.652 47.6833 277.412C47.5553 277.172 47.4913 276.868 47.4913 276.5V270.5L48.0913 270.332ZM50.3353 272V272.516H46.2913V272H50.3353Z" fill="#555555"/>
<path d="M12.2624 160.44V171H10.2624V165.496L10.3744 162.408H10.3424L7.41444 171H5.60644L2.69444 162.408H2.66244L2.77444 165.496V171H0.774438V160.44H3.97444L5.87844 166.2L6.55044 168.584H6.58244L7.27044 166.216L9.15844 160.44H12.2624ZM19.6648 160.44C20.8595 160.44 21.7981 160.728 22.4808 161.304C23.1635 161.88 23.5048 162.653 23.5048 163.624C23.5048 164.659 23.1635 165.453 22.4808 166.008C21.7981 166.552 20.8648 166.824 19.6808 166.824L19.4568 166.952H17.1848V171H15.0088V160.44H19.6648ZM19.4088 165.272C20.0275 165.272 20.4861 165.149 20.7848 164.904C21.0941 164.648 21.2488 164.259 21.2488 163.736C21.2488 163.213 21.0941 162.829 20.7848 162.584C20.4861 162.328 20.0275 162.2 19.4088 162.2H17.1848V165.272H19.4088ZM20.7048 165.736L24.1288 171H21.6488L18.8168 166.376L20.7048 165.736ZM26.8263 168.552C27.253 168.552 27.589 168.669 27.8343 168.904C28.0903 169.139 28.2183 169.453 28.2183 169.848C28.2183 170.253 28.0903 170.573 27.8343 170.808C27.589 171.032 27.253 171.144 26.8263 171.144C26.3996 171.144 26.0583 171.032 25.8023 170.808C25.557 170.573 25.4343 170.253 25.4343 169.848C25.4343 169.453 25.557 169.139 25.8023 168.904C26.0583 168.669 26.3996 168.552 26.8263 168.552ZM36.9254 171V164.312C36.9254 164.067 36.9254 163.816 36.9254 163.56C36.9361 163.293 36.9468 163.021 36.9574 162.744C36.5948 163.075 36.1894 163.363 35.7414 163.608C35.2934 163.853 34.8348 164.024 34.3654 164.12L34.0774 162.264C34.3228 162.243 34.5948 162.173 34.8934 162.056C35.2028 161.928 35.5121 161.779 35.8214 161.608C36.1414 161.427 36.4294 161.24 36.6854 161.048C36.9521 160.845 37.1548 160.643 37.2934 160.44H39.0854V171H36.9254ZM45.5177 171.16C44.163 171.16 43.1177 170.701 42.3817 169.784C41.6564 168.867 41.2937 167.512 41.2937 165.72C41.2937 163.928 41.6564 162.573 42.3817 161.656C43.1177 160.739 44.163 160.28 45.5177 160.28C46.8724 160.28 47.9124 160.739 48.6377 161.656C49.3737 162.573 49.7417 163.928 49.7417 165.72C49.7417 167.512 49.3737 168.867 48.6377 169.784C47.9124 170.701 46.8724 171.16 45.5177 171.16ZM45.5177 169.384C45.9764 169.384 46.3497 169.256 46.6377 169C46.9364 168.733 47.1604 168.333 47.3097 167.8C47.459 167.256 47.5337 166.563 47.5337 165.72C47.5337 164.877 47.459 164.189 47.3097 163.656C47.1604 163.112 46.9364 162.712 46.6377 162.456C46.3497 162.189 45.9764 162.056 45.5177 162.056C45.059 162.056 44.6804 162.189 44.3817 162.456C44.083 162.712 43.859 163.112 43.7097 163.656C43.571 164.189 43.5017 164.877 43.5017 165.72C43.5017 166.563 43.571 167.256 43.7097 167.8C43.859 168.333 44.083 168.733 44.3817 169C44.6804 169.256 45.059 169.384 45.5177 169.384Z" fill="#555555"/>
<path d="M7.54006 93V82.44H12.1641C13.4441 82.44 14.3881 82.6907 14.9961 83.192C15.6041 83.6933 15.9081 84.4027 15.9081 85.32C15.9081 85.8853 15.7374 86.3867 15.3961 86.824C15.0547 87.2613 14.5534 87.5387 13.8921 87.656V87.672C14.6281 87.7787 15.1934 88.056 15.5881 88.504C15.9827 88.952 16.1801 89.4853 16.1801 90.104C16.1801 91.0107 15.8494 91.72 15.1881 92.232C14.5374 92.744 13.5827 93 12.3241 93H7.54006ZM9.68406 91.336H12.1321C12.7294 91.336 13.1721 91.2133 13.4601 90.968C13.7481 90.7227 13.8921 90.3813 13.8921 89.944C13.8921 89.496 13.7481 89.1547 13.4601 88.92C13.1721 88.6853 12.7294 88.568 12.1321 88.568H9.68406V91.336ZM9.68406 86.872H11.8761C13.0387 86.872 13.6201 86.4187 13.6201 85.512C13.6201 84.6053 13.0387 84.152 11.8761 84.152H9.68406V86.872ZM22.6261 87.896C22.6261 87.4373 22.4927 87.08 22.2261 86.824C21.9701 86.568 21.6287 86.44 21.2021 86.44C20.8074 86.44 20.4607 86.5413 20.1621 86.744C19.8634 86.9467 19.6447 87.2827 19.5061 87.752L17.6341 87.176C17.8154 86.472 18.2101 85.9067 18.8181 85.48C19.4367 85.0533 20.2634 84.84 21.2981 84.84C22.0021 84.84 22.6154 84.952 23.1381 85.176C23.6607 85.3893 24.0661 85.7147 24.3541 86.152C24.6527 86.5893 24.8021 87.1387 24.8021 87.8V91.048C24.8021 91.4533 24.9941 91.656 25.3781 91.656C25.5594 91.656 25.7301 91.6293 25.8901 91.576L25.7621 92.936C25.4847 93.0747 25.1381 93.144 24.7221 93.144C24.3487 93.144 24.0127 93.08 23.7141 92.952C23.4154 92.824 23.1807 92.632 23.0101 92.376C22.8394 92.1093 22.7541 91.7787 22.7541 91.384V91.32L23.1381 91.256C23.0741 91.6613 22.8981 92.008 22.6101 92.296C22.3221 92.5733 21.9701 92.7867 21.5541 92.936C21.1487 93.0853 20.7274 93.16 20.2901 93.16C19.7461 93.16 19.2767 93.08 18.8821 92.92C18.4874 92.7493 18.1834 92.504 17.9701 92.184C17.7567 91.864 17.6501 91.4693 17.6501 91C17.6501 90.4027 17.8421 89.9173 18.2261 89.544C18.6101 89.16 19.1594 88.8987 19.8741 88.76L22.8821 88.152L22.8661 89.512L20.9461 89.896C20.5834 89.9707 20.3061 90.072 20.1141 90.2C19.9327 90.3173 19.8421 90.5147 19.8421 90.792C19.8421 91.0587 19.9381 91.2613 20.1301 91.4C20.3327 91.5387 20.5727 91.608 20.8501 91.608C21.0741 91.608 21.2927 91.5813 21.5061 91.528C21.7194 91.4747 21.9114 91.3893 22.0821 91.272C22.2527 91.1547 22.3861 90.9947 22.4821 90.792C22.5781 90.5893 22.6261 90.344 22.6261 90.056V87.896ZM27.2536 96.36V85H29.2216L29.3656 87.544L29.0936 87.256C29.1896 86.7867 29.3656 86.3707 29.6216 86.008C29.8882 85.6453 30.2242 85.3627 30.6296 85.16C31.0349 84.9467 31.4882 84.84 31.9896 84.84C32.6402 84.84 33.2216 85.0053 33.7336 85.336C34.2456 85.6667 34.6456 86.1413 34.9336 86.76C35.2322 87.368 35.3816 88.1093 35.3816 88.984C35.3816 89.8587 35.2322 90.6107 34.9336 91.24C34.6349 91.8587 34.2242 92.3333 33.7016 92.664C33.1896 92.9947 32.6029 93.16 31.9416 93.16C31.2376 93.16 30.6509 92.9627 30.1816 92.568C29.7229 92.1733 29.4082 91.6773 29.2376 91.08L29.4456 90.744V96.36H27.2536ZM31.3016 91.48C31.8882 91.48 32.3469 91.272 32.6776 90.856C33.0189 90.4293 33.1896 89.8107 33.1896 89C33.1896 88.1893 33.0242 87.576 32.6936 87.16C32.3736 86.7333 31.9202 86.52 31.3336 86.52C30.9602 86.52 30.6296 86.6213 30.3416 86.824C30.0642 87.016 29.8456 87.2987 29.6856 87.672C29.5256 88.0347 29.4456 88.4773 29.4456 89C29.4456 89.512 29.5202 89.9547 29.6696 90.328C29.8189 90.7013 30.0322 90.9893 30.3096 91.192C30.5976 91.384 30.9282 91.48 31.3016 91.48ZM41.7979 87.896C41.7979 87.4373 41.6646 87.08 41.3979 86.824C41.1419 86.568 40.8006 86.44 40.3739 86.44C39.9793 86.44 39.6326 86.5413 39.3339 86.744C39.0353 86.9467 38.8166 87.2827 38.6779 87.752L36.8059 87.176C36.9873 86.472 37.3819 85.9067 37.9899 85.48C38.6086 85.0533 39.4353 84.84 40.4699 84.84C41.1739 84.84 41.7873 84.952 42.3099 85.176C42.8326 85.3893 43.2379 85.7147 43.5259 86.152C43.8246 86.5893 43.9739 87.1387 43.9739 87.8V91.048C43.9739 91.4533 44.1659 91.656 44.5499 91.656C44.7313 91.656 44.9019 91.6293 45.0619 91.576L44.9339 92.936C44.6566 93.0747 44.3099 93.144 43.8939 93.144C43.5206 93.144 43.1846 93.08 42.8859 92.952C42.5873 92.824 42.3526 92.632 42.1819 92.376C42.0113 92.1093 41.9259 91.7787 41.9259 91.384V91.32L42.3099 91.256C42.2459 91.6613 42.0699 92.008 41.7819 92.296C41.4939 92.5733 41.1419 92.7867 40.7259 92.936C40.3206 93.0853 39.8993 93.16 39.4619 93.16C38.9179 93.16 38.4486 93.08 38.0539 92.92C37.6593 92.7493 37.3553 92.504 37.1419 92.184C36.9286 91.864 36.8219 91.4693 36.8219 91C36.8219 90.4027 37.0139 89.9173 37.3979 89.544C37.7819 89.16 38.3313 88.8987 39.0459 88.76L42.0539 88.152L42.0379 89.512L40.1179 89.896C39.7553 89.9707 39.4779 90.072 39.2859 90.2C39.1046 90.3173 39.0139 90.5147 39.0139 90.792C39.0139 91.0587 39.1099 91.2613 39.3019 91.4C39.5046 91.5387 39.7446 91.608 40.0219 91.608C40.2459 91.608 40.4646 91.5813 40.6779 91.528C40.8913 91.4747 41.0833 91.3893 41.2539 91.272C41.4246 91.1547 41.5579 90.9947 41.6539 90.792C41.7499 90.5893 41.7979 90.344 41.7979 90.056V87.896ZM48.9449 82.552V90.392C48.9449 90.776 49.0409 91.0587 49.2329 91.24C49.4356 91.4107 49.7076 91.496 50.0489 91.496C50.3156 91.496 50.5503 91.4587 50.7529 91.384C50.9556 91.2987 51.1369 91.1867 51.2969 91.048L51.6489 92.504C51.3929 92.7067 51.0729 92.8667 50.6889 92.984C50.3049 93.1013 49.8996 93.16 49.4729 93.16C48.9396 93.16 48.4649 93.08 48.0489 92.92C47.6436 92.76 47.3236 92.504 47.0889 92.152C46.8649 91.8 46.7529 91.3307 46.7529 90.744V83.16L48.9449 82.552ZM51.5049 85V86.632H45.2809V85H51.5049Z" fill="#555555"/>
<path d="M221.145 80.44V91H219.145V85.496L219.257 82.408H219.225L216.297 91H214.489L211.577 82.408H211.545L211.657 85.496V91H209.657V80.44H212.857L214.761 86.2L215.433 88.584H215.465L216.153 86.216L218.041 80.44H221.145ZM228.548 80.44C229.742 80.44 230.681 80.728 231.364 81.304C232.046 81.88 232.388 82.6533 232.388 83.624C232.388 84.6587 232.046 85.4533 231.364 86.008C230.681 86.552 229.748 86.824 228.564 86.824L228.34 86.952H226.068V91H223.892V80.44H228.548ZM228.292 85.272C228.91 85.272 229.369 85.1493 229.668 84.904C229.977 84.648 230.132 84.2587 230.132 83.736C230.132 83.2133 229.977 82.8293 229.668 82.584C229.369 82.328 228.91 82.2 228.292 82.2H226.068V85.272H228.292ZM229.588 85.736L233.012 91H230.532L227.7 86.376L229.588 85.736ZM235.709 88.552C236.136 88.552 236.472 88.6693 236.717 88.904C236.973 89.1387 237.101 89.4533 237.101 89.848C237.101 90.2533 236.973 90.5733 236.717 90.808C236.472 91.032 236.136 91.144 235.709 91.144C235.282 91.144 234.941 91.032 234.685 90.808C234.44 90.5733 234.317 90.2533 234.317 89.848C234.317 89.4533 234.44 89.1387 234.685 88.904C234.941 88.6693 235.282 88.552 235.709 88.552ZM247.548 80.28C248.486 80.28 249.276 80.4987 249.916 80.936C250.556 81.3627 251.036 81.9813 251.356 82.792C251.686 83.592 251.852 84.5573 251.852 85.688C251.852 86.936 251.676 87.9653 251.324 88.776C250.972 89.576 250.47 90.1733 249.82 90.568C249.18 90.9627 248.428 91.16 247.564 91.16C246.657 91.16 245.873 90.968 245.212 90.584C244.561 90.2 244.07 89.6133 243.74 88.824L245.772 87.96C245.889 88.3973 246.092 88.7493 246.38 89.016C246.678 89.272 247.089 89.4 247.612 89.4C248.028 89.4 248.38 89.32 248.668 89.16C248.956 88.9893 249.185 88.7493 249.356 88.44C249.537 88.1307 249.665 87.752 249.74 87.304C249.825 86.856 249.868 86.3547 249.868 85.8C249.868 85.7573 249.868 85.72 249.868 85.688C249.868 85.656 249.868 85.6187 249.868 85.576H249.804C249.686 85.9493 249.484 86.2587 249.196 86.504C248.918 86.7387 248.598 86.9147 248.236 87.032C247.873 87.1387 247.5 87.192 247.116 87.192C246.444 87.192 245.846 87.0587 245.324 86.792C244.812 86.5147 244.406 86.1307 244.108 85.64C243.809 85.1387 243.66 84.5573 243.66 83.896C243.66 83.1493 243.82 82.5093 244.14 81.976C244.46 81.432 244.908 81.016 245.484 80.728C246.07 80.4293 246.758 80.28 247.548 80.28ZM247.564 82.072C246.998 82.072 246.556 82.232 246.236 82.552C245.916 82.8613 245.756 83.2987 245.756 83.864C245.756 84.3653 245.921 84.76 246.252 85.048C246.582 85.3253 247.02 85.464 247.564 85.464C247.916 85.464 248.225 85.3947 248.492 85.256C248.769 85.1173 248.982 84.92 249.132 84.664C249.281 84.408 249.356 84.1147 249.356 83.784C249.356 83.432 249.281 83.128 249.132 82.872C248.982 82.616 248.769 82.4187 248.492 82.28C248.225 82.1413 247.916 82.072 247.564 82.072Z" fill="#555555"/>
<path d="M833.02 231.44V242H831.02V236.496L831.132 233.408H831.1L828.172 242H826.364L823.452 233.408H823.42L823.532 236.496V242H821.532V231.44H824.732L826.636 237.2L827.308 239.584H827.34L828.028 237.216L829.916 231.44H833.02ZM840.423 231.44C841.617 231.44 842.556 231.728 843.239 232.304C843.921 232.88 844.263 233.653 844.263 234.624C844.263 235.659 843.921 236.453 843.239 237.008C842.556 237.552 841.623 237.824 840.439 237.824L840.215 237.952H837.943V242H835.767V231.44H840.423ZM840.167 236.272C840.785 236.272 841.244 236.149 841.543 235.904C841.852 235.648 842.007 235.259 842.007 234.736C842.007 234.213 841.852 233.829 841.543 233.584C841.244 233.328 840.785 233.2 840.167 233.2H837.943V236.272H840.167ZM841.463 236.736L844.887 242H842.407L839.575 237.376L841.463 236.736ZM847.584 239.552C848.011 239.552 848.347 239.669 848.592 239.904C848.848 240.139 848.976 240.453 848.976 240.848C848.976 241.253 848.848 241.573 848.592 241.808C848.347 242.032 848.011 242.144 847.584 242.144C847.157 242.144 846.816 242.032 846.56 241.808C846.315 241.573 846.192 241.253 846.192 240.848C846.192 240.453 846.315 240.139 846.56 239.904C846.816 239.669 847.157 239.552 847.584 239.552ZM857.683 242V235.312C857.683 235.067 857.683 234.816 857.683 234.56C857.694 234.293 857.705 234.021 857.715 233.744C857.353 234.075 856.947 234.363 856.499 234.608C856.051 234.853 855.593 235.024 855.123 235.12L854.835 233.264C855.081 233.243 855.353 233.173 855.651 233.056C855.961 232.928 856.27 232.779 856.579 232.608C856.899 232.427 857.187 232.24 857.443 232.048C857.71 231.845 857.913 231.643 858.051 231.44H859.843V242H857.683ZM864.34 242V235.312C864.34 235.067 864.34 234.816 864.34 234.56C864.35 234.293 864.361 234.021 864.372 233.744C864.009 234.075 863.604 234.363 863.156 234.608C862.708 234.853 862.249 235.024 861.78 235.12L861.492 233.264C861.737 233.243 862.009 233.173 862.308 233.056C862.617 232.928 862.926 232.779 863.236 232.608C863.556 232.427 863.844 232.24 864.1 232.048C864.366 231.845 864.569 231.643 864.708 231.44H866.5V242H864.34Z" fill="#555555"/>
<path d="M361.648 269.08V269.632H358.756V277H358.156V269.632H355.264V269.08H361.648ZM362.689 277V268.24H363.289V272.224C363.465 271.8 363.749 271.472 364.141 271.24C364.533 271 364.985 270.88 365.497 270.88C365.945 270.88 366.341 270.964 366.685 271.132C367.029 271.292 367.297 271.54 367.489 271.876C367.689 272.204 367.789 272.612 367.789 273.1V277H367.189V273.292C367.189 272.644 367.025 272.168 366.697 271.864C366.377 271.552 365.957 271.396 365.437 271.396C365.061 271.396 364.709 271.484 364.381 271.66C364.061 271.836 363.797 272.088 363.589 272.416C363.389 272.744 363.289 273.144 363.289 273.616V277H362.689ZM372.309 277.12C371.757 277.12 371.265 276.996 370.833 276.748C370.401 276.5 370.061 276.144 369.813 275.68C369.573 275.208 369.453 274.648 369.453 274C369.453 273.352 369.573 272.796 369.813 272.332C370.061 271.86 370.393 271.5 370.809 271.252C371.225 271.004 371.701 270.88 372.237 270.88C372.781 270.88 373.245 271 373.629 271.24C374.013 271.48 374.309 271.816 374.517 272.248C374.725 272.672 374.829 273.164 374.829 273.724C374.829 273.796 374.825 273.868 374.817 273.94C374.817 274.004 374.813 274.064 374.805 274.12H369.825V273.58H374.541L374.241 273.664C374.233 272.976 374.049 272.428 373.689 272.02C373.337 271.612 372.849 271.408 372.225 271.408C371.793 271.408 371.413 271.512 371.085 271.72C370.757 271.92 370.501 272.216 370.317 272.608C370.133 272.992 370.041 273.456 370.041 274C370.041 274.536 370.133 275 370.317 275.392C370.509 275.784 370.773 276.084 371.109 276.292C371.453 276.492 371.849 276.592 372.297 276.592C372.761 276.592 373.157 276.492 373.485 276.292C373.821 276.092 374.081 275.816 374.265 275.464L374.745 275.74C374.601 276.028 374.409 276.276 374.169 276.484C373.929 276.684 373.653 276.84 373.341 276.952C373.029 277.064 372.685 277.12 372.309 277.12ZM386.578 269.08V277H385.978V269.08H386.578ZM381.082 269.08V277H380.482V269.08H381.082ZM386.266 272.692V273.256H380.794V272.692H386.266ZM390.957 277.12C390.541 277.12 390.169 277.044 389.841 276.892C389.513 276.74 389.253 276.504 389.061 276.184C388.877 275.856 388.785 275.448 388.785 274.96V271H389.385V274.816C389.385 275.44 389.533 275.892 389.829 276.172C390.133 276.452 390.557 276.592 391.101 276.592C391.421 276.592 391.709 276.536 391.965 276.424C392.229 276.312 392.453 276.156 392.637 275.956C392.821 275.756 392.961 275.528 393.057 275.272C393.161 275.016 393.213 274.74 393.213 274.444V271H393.813V277H393.273L393.249 275.764C393.073 276.188 392.785 276.52 392.385 276.76C391.985 277 391.509 277.12 390.957 277.12ZM398.767 277.12C398.399 277.12 398.055 277.052 397.735 276.916C397.423 276.78 397.155 276.584 396.931 276.328C396.715 276.072 396.555 275.772 396.451 275.428L396.535 275.332L396.487 277H395.947V268.24H396.547V272.608L396.475 272.5C396.635 272.004 396.919 271.612 397.327 271.324C397.743 271.028 398.223 270.88 398.767 270.88C399.295 270.88 399.763 271.004 400.171 271.252C400.579 271.5 400.903 271.856 401.143 272.32C401.383 272.784 401.503 273.344 401.503 274C401.503 274.648 401.383 275.208 401.143 275.68C400.903 276.144 400.575 276.5 400.159 276.748C399.751 276.996 399.287 277.12 398.767 277.12ZM398.695 276.592C399.375 276.592 399.911 276.36 400.303 275.896C400.703 275.432 400.903 274.8 400.903 274C400.903 273.2 400.707 272.568 400.315 272.104C399.923 271.64 399.387 271.408 398.707 271.408C398.291 271.408 397.919 271.516 397.591 271.732C397.263 271.94 397.007 272.24 396.823 272.632C396.639 273.024 396.547 273.484 396.547 274.012C396.547 274.54 396.639 275 396.823 275.392C397.007 275.776 397.259 276.072 397.579 276.28C397.907 276.488 398.279 276.592 398.695 276.592Z" fill="#555555"/>
</svg>
